<?xml version="1.0" encoding="UTF-8"?>
<svg version="1.1" viewBox="0 0 2048 2048" width="1280" height="1280" xmlns="http://www.w3.org/2000/svg">
<path transform="translate(454,251)" d="m0 0h238l18 3 17 5 16 7 16 9 14 11 12 11 9 11 10 14 8 15 8 22 4 20 1 11v73l6 2 21 11 22 13 15 9 23 11 24 9 26 7 31 5 10 1h42l25-3 24-5 26-8 24-10 16-8 21-12 15-9 23-12 3-2v-63l2-23 5-21 6-16 10-19 9-12 11-13 7-7 14-11 13-8 21-10 17-5 19-3h238l18 3 20 6 19 9 11 7 14 11 10 9 9 11 9 12 8 14 8 20 4 14 3 21v87l6 2 16 10 16 11 14 11 21 18v2l4 2 4 4v2h2l7 8 10 11 8 10 13 16 24 32 14 20 18 27 16 26 12 21 10 18 17 33 13 28 16 38 15 42 11 35 10 38 8 36 6 35 6 47 4 42v349l-6 39-7 32-7 22-8 22-9 20-10 20-14 23-12 17-10 13-11 12-10 5-4 1h-10l-10-4-2-2h-5l-12 12-11 9-14 11-3 2 1 5 2 6v11l-4 10-4 6-8 6-27 14-23 10-22 8-25 7-23 5-28 4-22 2h-40l-31-3-28-5-24-6-33-11-25-11-25-13-21-13-18-13-10-8-13-11-12-11-17-16-8-7-11-11-7-8-18-18-7-8-27-27-8-7-16-13-19-13-21-12-23-10-19-6-24-5-17-2-32-1h-233l-25 1-23 3-24 6-22 8-17 8-20 12-19 14-14 12-10 9-7 7-6 5-7 8-13 13-7 8-15 15-7 8-10 10-8 7-15 14-12 11-14 11-13 10-20 13-19 11-16 8-17 8-24 9-26 8-28 6-26 4-23 2h-41l-31-3-28-5-27-7-27-9-23-10-16-8-17-9-19-12-18-13-16-13-12-11-8-7-11-11-7-8-12-14-13-17-14-21-11-19-9-17-12-28-9-27-7-27-6-35-2-15v-357l7-63 7-45 9-42 10-39 14-45 8-21 5-13 6-8 5-4 10-4h17l8-18 9-19 7-15-8-7-4-7-3-9v-7l4-12 14-24 13-22 11-17 10-15 14-20 14-19 13-17 13-16 9-11 11-12 7-8 12-12 11-9 14-12 19-13 14-9 9-5 1-2 1-89 3-18 6-19 7-16 9-15 10-13 9-10 11-10 16-11 21-11 18-6 15-3z" fill="#E9E9FD"/>
<path transform="translate(454,251)" d="m0 0h238l18 3 17 5 16 7 16 9 14 11 12 11 9 11 10 14 8 15 8 22 4 20 1 11v73l6 2 21 11 22 13 15 9 23 11 24 9 26 7 31 5 10 1h42l25-3 24-5 26-8 24-10 16-8 21-12 15-9 23-12 3-2v-63l2-23 5-21 6-16 10-19 9-12 11-13 7-7 14-11 13-8 21-10 17-5 19-3h238l18 3 20 6 19 9 11 7 14 11 10 9 9 11 9 12 8 14 8 20 4 14 3 21v87l6 2 16 10 16 11 14 11 21 18v2l4 2 4 4v2h2l7 8 10 11 8 10 13 16 24 32 14 20 18 27 16 26 12 21 10 18 17 33 13 28 16 38 15 42 11 35 10 38 8 36 6 35 6 47 4 42v349l-6 39-7 32-7 22-8 22-9 20-10 20-14 23-12 17-10 13-11 12-10 5-4 1h-10l-10-4-9-8-4-8-1-4v-12l4-10 11-14 13-18 13-21 9-17 10-23 9-27 6-24 4-25 1-9 1-22v-302l-1-30-3-37-4-32-6-36-8-37-10-38-12-38-11-30-12-29-13-29-18-36-13-23-8-14-16-26-21-31-13-18-16-21-11-14-11-13-7-8-9-10-10-10-11-9-12-10-18-12-19-11-23-11-22-8-26-7-30-5-12-1-34-1h-161l-40 1-27 3-24 5-21 6-25 10-17 8-27 16-21 12-25 12-27 10-20 6-28 6-29 4-11 1h-41l-28-3-27-5-20-5-27-9-23-10-16-8-18-10-20-12-23-12-25-10-20-6-22-5-21-3-12-1-30-1h-176l-29 1-26 3-24 5-26 8-24 10-20 10-19 12-15 11-11 9-10 9-16 16-9 11-10 12-8 10-10 13-13 18-11 15-8 12-11 17-10 16-10 17-11 19-9 10-8 4-4 1h-11l-10-3-8-7-4-7-3-9v-7l4-12 14-24 13-22 11-17 10-15 14-20 14-19 13-17 13-16 9-11 11-12 7-8 12-12 11-9 14-12 19-13 14-9 9-5 1-2 1-89 3-18 6-19 7-16 9-15 10-13 9-10 11-10 16-11 21-11 18-6 15-3z" fill="#010001"/>
<path transform="translate(495,491)" d="m0 0h176l15 1v1l-154 1-36 1-14 27-10 19-11 23-12 26-13 32-12 32-9 28-8 27-11 45-8 40-3 19-1 9-4 3h4l1 2-14 6-13 9-12 10-8 10-10 17-6 17-2 10-1 11-1 61-9 1h-47l-21 2-15 4-16 8-13 9-8 7-8 10-8 13-5 11-4 13-2 13v21l3 16 6 16 8 14 9 11 8 8 15 10 12 6 16 5 13 2 65 1 1 1 1 55 1 17 4 16 5 13 10 16 11 12 11 9 16 9 14 5 14 3h29l12-2 6 11 17 35 8 16 15 28 14 24 16 26 8 12 11 16 10 14 14 19 11 14 13 16 9 11 10 11 7 8 8 8v2l3 1 3 4-1 5-2 4-1 4-17 17-8 7-14 13-14 11-13 10-15 10-25 14-24 11-36 12-29 6-20 3-12 1h-43l-28-3-29-6-26-8-25-10-19-9-22-13-16-11-14-11-10-9-8-7-19-19-9-11-13-17-11-17-10-17-12-25-8-21-8-28-5-25-3-29v-332l3-41 4-34 7-43 8-37 12-45 13-38 8-24 1-10-3-10-4-6-7-6-6-3 3-4 7-16 9-19 7-14 3-1 7 2h11l8-3 6-4 6-7 15-26 10-17 10-15 7-11 8-12 12-16 12-17 11-14 13-16 9-11 12-13 16-16 14-11 15-11 21-13 22-11 23-9 23-7 24-5 26-3z" fill="#CFCDFD"/>
<path transform="translate(81,810)" d="m0 0h11l10 4 8 7 5 8 2 8-1 10-8 24-13 38-12 45-8 37-7 43-4 34-3 41v332l3 29 6 29 8 26 8 21 12 25 12 20 11 16 10 13 13 15 20 20 8 7 15 12 24 16 21 12 24 11 25 9 25 7 28 5 21 2h43l26-3 31-6 29-9 20-8 21-10 19-11 12-8 16-12 11-9 10-9 8-7 16-15 15-15 7-8 16-16 7-8 26-26 8-7 10-9 17-13 17-12 18-11 21-11 25-10 23-7 24-5 27-3h289l29 3 24 5 24 7 20 8 23 11 18 11 16 11 13 10 11 9 13 12 12 11 16 16 7 8 18 18 7 8 22 22 8 7 13 12 13 11 16 12 17 11 18 10 25 12 28 10 32 8 19 3 20 2h43l26-3 22-4 20-5 27-9 25-11 19-10 7-3 5-1h7l10 3 9 7 3 3 4 11v11l-4 10-4 6-8 6-27 14-23 10-22 8-25 7-23 5-28 4-22 2h-40l-31-3-28-5-24-6-33-11-25-11-25-13-21-13-18-13-10-8-13-11-12-11-17-16-8-7-11-11-7-8-18-18-7-8-27-27-8-7-16-13-19-13-21-12-23-10-19-6-24-5-17-2-32-1h-233l-25 1-23 3-24 6-22 8-17 8-20 12-19 14-14 12-10 9-7 7-6 5-7 8-13 13-7 8-15 15-7 8-10 10-8 7-15 14-12 11-14 11-13 10-20 13-19 11-16 8-17 8-24 9-26 8-28 6-26 4-23 2h-41l-31-3-28-5-27-7-27-9-23-10-16-8-17-9-19-12-18-13-16-13-12-11-8-7-11-11-7-8-12-14-13-17-14-21-11-19-9-17-12-28-9-27-7-27-6-35-2-15v-357l7-63 7-45 9-42 10-39 14-45 8-21 5-13 6-8 5-4z" fill="#010001"/>
<path transform="translate(1619,859)" d="m0 0h19l21 2 19 3 24 7 19 8 16 8 16 10 17 13 12 11 12 12 11 14 9 13 10 17 8 17 6 16 6 23 4 25v43l-4 24-5 19-7 20-9 19-11 18-12 16-12 13-4 5-8 7-13 11-17 12-18 10-15 7-20 7-20 5-18 3-14 1h-26l-25-3-25-6-22-8-16-8-21-12-18-14-12-11-12-12-11-14-10-14-12-22-10-25-6-21-4-23-1-13v-26l2-21 5-23 5-16 8-20 11-21 11-16 11-14 6-7 5-5 13-12 20-15 22-13 20-9 21-7 22-5 14-2z" fill="#FD7080"/>
<path transform="translate(407,821)" d="m0 0h21l14 2 15 5 16 8 16 13 10 11 9 15 5 11 4 13 2 14 1 64 48 1 22 1 15 3 13 5 13 7 10 8 9 8 10 13 6 10 6 15 4 18v26l-5 21-8 17-10 14-12 12-15 10-12 6-16 5-13 2-65 1-1 64-3 19-6 16-6 11-10 13-10 10-14 10-15 7-16 5-5 1h-29l-18-4-16-7-11-7-10-8-9-9-10-15-6-12-5-17-1-5-1-17-1-55-65-1-17-3-14-5-12-6-14-10-11-11-9-13-8-16-4-13-2-12v-21l3-17 6-16 8-14 7-9 5-6 11-9 14-9 11-5 15-4 21-2h56v-61l2-17 5-16 8-16 8-11 7-8 14-11 13-8 16-6z" fill="#010001"/>
<path transform="translate(1619,859)" d="m0 0h19l21 2 19 3 24 7 19 8 16 8 16 10 17 13 12 11 12 12 11 14 9 13 10 17 8 17 6 16 6 23 4 25v43l-4 24-5 19-7 20-9 19-11 18-12 16-12 13-4 5-8 7-13 11-17 12-18 10-15 7-20 7-20 5-18 3-14 1h-26l-25-3-25-6-22-8-16-8-21-12-18-14-12-11-12-12-11-14-10-14-12-22-10-25-6-21-4-23-1-13v-26l2-21 5-23 5-16 8-20 11-21 11-16 11-14 6-7 5-5 13-12 20-15 22-13 20-9 21-7 22-5 14-2zm2 60-21 2-20 5-19 8-17 9-11 8-7 5v2l-4 2-15 15-10 14-8 13-8 17-6 18-5 25v34l4 21 8 24 8 16 9 14 11 14 16 16 18 13 16 9 21 8 18 5 12 2 11 1h13l17-2 19-4 18-6 21-10 15-10 11-9 16-16 12-17 9-16 8-19 6-23 2-18v-21l-3-21-5-19-6-15-10-19-10-14-11-12-12-12-15-11-16-9-15-7-20-6-17-3-11-1z" fill="#010001"/>
<path transform="translate(411,881)" d="m0 0h14l10 3 9 6 5 4 7 11 3 10 1 97 3 10 6 8 8 5 7 2 95 1 12 3 8 4 8 7 6 10 3 8 1 13-3 11-6 10-8 8-12 6-5 1-97 1-8 2-9 6-6 8-3 10-1 98-4 11-7 9-8 7-8 4-10 2-13-1-12-5-8-7-6-8-4-10-1-5-1-97-4-10-3-4v-2l-4-2-7-4-11-2-94-1-10-3-10-7-7-8-5-10-1-4v-16l5-13 7-9 10-7 8-3 6-1 97-1 10-4 7-6 5-9 1-5 1-95 3-12 5-9 5-6 11-7z" fill="#6271AA"/>
<path transform="translate(882 1e3)" d="m0 0h20l14 3 13 5 12 7 11 9 8 9 7 11 5 11 4 14 1 7v98l-3 17-5 12-7 12-8 10h-2v2l-13 10-16 8-12 4-15 2-18-1-15-4-19-9-17-10-28-16-22-13-11-8-11-11-9-14-6-15-3-16v-16l3-17 7-17 8-12 4-5 8-7 13-9 52-30 25-14 14-5z" fill="#010001"/>
<path transform="translate(1147 1e3)" d="m0 0h18l15 3 17 7 28 16 26 15 14 8 12 8 10 9 8 9 8 14 5 13 2 9 1 9v10l-3 19-6 15-7 12-11 12-13 10-26 15-28 16-19 11-16 7-12 3-17 1-16-2-16-5-15-9-13-11-8-10-8-15-5-16-1-7v-103l4-16 4-10 10-16h2l2-4 7-7 10-7 16-8 14-4z" fill="#010001"/>
<path transform="translate(1360,311)" d="m0 0h231l17 4 16 8 13 9 9 9 9 13 7 15 4 14 1 7v58l-10-2-24-6-30-5-24-2-34-1h-185l-29 2-28 4-16 3h-4v-52l3-14 5-14 9-15 9-10 11-9 13-8 13-5z" fill="#6EDAB8"/>
<path transform="translate(458,311)" d="m0 0h231l17 4 16 8 9 6 10 9 7 8 8 14 5 12 3 11 1 6v52l-2 1-12-3-27-4-23-2-40-1h-174l-35 2-28 4-27 6-13 4h-3v-58l4-19 8-17 8-11 6-7 11-9 13-8 13-5z" fill="#6EDAB8"/>
<path transform="translate(1275,649)" d="m0 0h14l10 4 6 5 5 8 3 10 1 55 1-2 14-3 19-2h14l22 3 18 5 18 8 15 9 13 11 9 10 8 13 7 16 3 14v17l-5 18-8 16-8 12-15 15-16 10-17 8-25 7-14 2h-24l-24-4-24-8-19-10-13-10-12-12-10-15-6-15-3-15v-12l2-15 6-16 6-11 7-9 8-9 4-2-2-4-6-7-3-6-1-4v-61l3-9 6-8 10-6z" fill="#FBA0AA"/>
<path transform="translate(758,649)" d="m0 0h14l10 4 5 4 6 9 2 7v60l-3 9-4 6h-2v2l-5 4h-2v2l4-1 8 7 8 9 8 13 6 15 3 14v15l-3 14-6 16-9 14-9 10-9 9-16 10-17 8-21 6-19 3h-23l-20-3-18-5-17-7-15-9-11-9-10-10-9-13-7-16-4-18v-13l3-16 6-15 7-12 11-12 11-10 15-9 18-8 17-5 15-3 12-1h12l24 3 10 3 1-51 2-11 5-9 8-7z" fill="#FBA0AA"/>
<path transform="translate(1570,930)" d="m0 0 2 1-3 7-5 19-4 28v29l3 24 6 22 7 17 8 16 10 15 10 13 12 13 7 7 14 11 12 8 11 6 5 3 8 3 11 5 25 7 27 4 7 2-6 7-9 8-15 10-19 10-16 6-20 5-12 2-11 1h-13l-18-2-20-5-19-7-16-8-12-8-13-10-16-16-12-16-8-13-8-18-6-19-4-21v-34l5-25 6-18 10-21 13-19 11-12 9-9h2v-2l14-10 13-8z" fill="#F64C60"/>
<path transform="translate(1386,491)" d="m0 0h161l34 1 26 3 24 5 24 7 25 10 20 10 21 13 16 12 13 11 12 11 10 10 7 8 14 17 11 14 16 21 12 17 24 36 14 23 12 21 13 24 16 32 14 32 12 31 12 34 10 34 11 44 8 43 5 35 3 32 1 15 1 30v302l-1 22-4 29-6 25-6 20-10 25-8 17-12 21-11 16-9 12-10 13h-1l1-7 8-14 5-5 5-9h2l1-4h2l2-4 3-5 9-19 8-18h2l1-8 4-9 3-11 3-12 3-7v-5h2l-1-4 3-11 1-35 1-1v-241l1-58-1-20v-14l-1-4-1-21-3-31-5-30-7-37-4-18-4-16-8-29-8-26-12-33-11-28-12-27-16-32-10-19-6-11-11-19-14-23-16-24-13-19-14-18-10-13-8-10-11-12-9-11-4-4v-2l-4-2v-2l-4-2v-2l-4-2-11-11-8-7-10-8-3-2v-2l-5-2-11-7-15-10-12-6-7-3-15-6-22-8-10-2-4-1-11-1-5-2-23-2h-8l-4 1-54 2h-78l-36-1-53-1-32 3-14 3-5 2-5 1-9 4-4-1v2l-11 4-6 2-11 4-14 7h-3v2l-11 6-14 9-16 9-12 6-10 4-7 2-4 3h-4l-1-3 6-6 18-8 23-12 28-17 19-10 25-10 22-7 22-5 21-3 12-1z" fill="#F3F3F8"/>
<path transform="translate(458,311)" d="m0 0h103v1l-7 1-9 16-8 20-9 29-5 21-4 21v8l1 2-2 1-54 2-28 3-31 6-21 6h-3v-58l4-19 8-17 8-11 6-7 11-9 13-8 13-5z" fill="#2ACB9C"/>
<path transform="translate(1360,311)" d="m0 0h101v1l-6 2-8 16-3 5-12 36-6 23-5 23-1 11 2 2-2 1-60 1-29 2-28 4-16 3h-4v-52l3-14 5-14 9-15 9-10 11-9 13-8 13-5z" fill="#2ACB9C"/>
<path transform="translate(949,697)" d="m0 0h13l10 4 12 11 11 8 13 5 4 1h24l15-5 12-8 9-9 10-6 4-1h12l9 3 9 8 5 10 1 5v7l-3 10-6 8-11 11-14 10-17 9-18 6-17 3h-24l-17-3-16-5-16-8-12-8-12-11-7-7-5-9-1-4v-11l4-10 7-8 6-4z" fill="#010001"/>
<path transform="translate(887,1063)" d="m0 0h10l10 4 7 8 3 7 1 8v81l-3 10-7 8-8 4-3 1h-11l-16-8-21-12-26-15-14-8-6-5-5-8-2-8 1-9 6-10 10-7 52-30 16-9z" fill="#6ED9B8"/>
<path transform="translate(1150,1063)" d="m0 0h10l10 4 27 15 24 14 14 8 9 7 6 9 1 3v11l-5 10-8 7-49 28-19 11-9 4h-11l-10-5-7-8-3-9v-86l3-9 6-8 8-5z" fill="#FCE773"/>
<path transform="translate(953,1460)" d="m0 0h163l38 1 30 2 23 3 23 5 24 8 17 7 20 10 16 9 9 6 10 7 10 6 4 4v2l6 2v2l5 2 3 3v2l5 2 4 4v2l5 2 4 4v2l4 2 28 28v3l4 2 9 9v2l4 2v2l4 2 7 8 3 3v2h3l5 5 1 3 4 2 5 5 10 9 5 5v2l4 1 3 2v2l4 2 6 5 4 4 4 2v2l5 2 7 6 14 8 8 5 28 13 25 10 17 5 15 4 20 3 15 1h34l25-1 13-3 14-2 19-4 10-3 30-10 8-4 14-6 15-7 10-2 3-3h7l1 3 12 1 4 2v2l9 1 5-3 18-14 4-8-2-17 1-7 1-3h2l2 7 5 12 5 7-5 3-10 10-11 9-14 11-5 2-9-8-7-3-5-1h-7l-10 3-17 9-24 11-25 9-23 6-20 4-21 3-11 1h-43l-28-3-24-5-25-7-24-9-25-12-18-10-19-13-14-11-14-12-16-15-8-7-23-23-7-8-18-18-7-8-17-17-8-7-12-11-17-13-17-12-18-11-19-10-24-10-23-7-22-5-24-3-11-1h-289l-27 3-28 6-30 10-24 11-18 10-17 11-19 14-13 11-10 9-12 11-20 20-2 3h-2l-2 4-16 16-2-1v-3h3l1-4h2v-2h3l1-4h2v-2h2v-2h2v-2h2v-2l7-6 5-6 7-6 1-2h2v-2h2v-2h2v-2h2l2-4h2v-3l8-7 4-4h2v-2l8-7 5-3 3-3 7-6 5-3h2v-2l4-2 1-2 6-3 9-6 14-8 9-5 11-6 9-4 12-4 4-2 10-2 6-2 11-2 6-2 15-1 6-3 44-1z" fill="#EFF0F6"/>
<path transform="translate(758,649)" d="m0 0h14l10 4 5 4 6 9 2 7v60l-3 9-4 6h-2v2l-9 6-8 2h-8l-11-4-8-7-4-6-2-5-1-6v-51l2-11 5-9 8-7z" fill="#010001"/>
<path transform="translate(1275,649)" d="m0 0h14l10 4 6 5 5 8 2 6v64l-5 9-5 6-8 5-7 2h-10l-10-4-8-7-5-9-1-4v-61l3-9 6-8 10-6z" fill="#010001"/>
<path transform="translate(686,492)" d="m0 0h15l27 3 24 5 21 6 21 8 25 12 29 17 16 9 16 8 24 10 27 9 26 6 26 4 20 2 32 1 6 1 1 5h-12l-9 1h-23l-15-1-11-2-10-1-11-3-11-2-25-6-24-8-6-3-14-5-15-7-18-10-25-15-12-7-16-8-22-8-12-4-8-2-7-2-13-1v-2l-22-1h-29l-2 1h-18v1l-7 1h-43l-58-3-3-2 1-1 15-2 13-2 17-1z" fill="#F5F6FA"/>
<path transform="translate(737,1146)" d="m0 0 3 3 6 17 8 13 9 10 8 7 18 11 26 15 28 16 17 9 13 4 15 2 18-1 15-4 16-8 11-8 4-2v-2h2l2-4 7-9 8-15 3-10 2-4h3l1 12-3 7-4 10-13 17-10 10-16 10-19 8-24 4h-9l-14-3-14-5-8-4-15-7-28-16-22-13-16-11-10-8-7-8-8-14-2-9-2-5-1-9 1-4z" fill="#F3F3F9"/>
<path transform="translate(1308,1154)" d="m0 0 4 2-1 8-8 14-7 9-5 4-3 3-1 2h-2l-2 4-10 8-26 16-25 15-16 9-16 8-12 4h-8l-15 3h-10l-16-4-17-8-9-6-6-3-4-4v-2l-4-2v-2h-2l-8-11v-8l-1-3 2-1 3 3 7 10 7 8 12 9 12 7 16 5 16 2 17-1 14-4 10-4 23-13 25-14 24-14 13-9 10-9 9-12 8-16h2z" fill="#F0F1F7"/>
<path transform="translate(1122,719)" d="m0 0 1 2h3l2 8v9l-4 9-7 9h-2v2h-2v2l-13 10h-2v2l-7 5-22 11-13 4-9 1-13 4h-29l-21-6-18-8-5-3-13-9-6-4-8-8-9-12-2-10 1-6 3 1 4 10 9 10 7 7 14 10 16 8 14 5 14 3 7 1h24l17-3 18-6 17-9 11-8 10-9 8-9 3-7 1-5h2z" fill="#F2F3F8"/>
<path transform="translate(1848,1111)" d="m0 0h2l1 7-1 6-3 7 1 11h-2v7l-4 13-12 26-3 2-1 4-8 13-10 13-15 15-1 2h-2l-2 4-4 2v2l-8 7-10 8-11 8-18 11-16 9-6 2-4 1-11 3h-6l-2-2 5-5 25-10 19-10 15-10 13-10 12-11 14-14 11-14 10-15 7-12 10-22 8-25 3-14h2l1-8z" fill="#F1F1F7"/>
<path transform="translate(1616,854)" d="m0 0h29l4 1 16 1 5 2 14 1 22 6 12 5 28 14 17 11 13 10 6 5 2 1v2l4 2 6 7 5 5 1 3 2 1 4 5 6 11 3 3 1 3 2 2-1 5-5-4-2-5-8-11-5-5-8-9-6-3-9-9-17-13-15-10-12-7-20-9-24-8-20-4-14-2-14-1h-45l1-3 6-2h13l3 1z" fill="#F1F2F8"/>
<path transform="translate(1446,1202)" d="m0 0 3 1 9 12 11 13 15 15 17 13 10 7 17 10 20 9 10 4 2 3 4 1v4l2 2-10-1-14-6-13-5-16-8-14-9-9-6-8-7-10-7-7-8-8-9-7-10-3-7-2-3z" fill="#F2F4F8"/>
<path transform="translate(891,997)" d="m0 0 19 1 15 5 13 6 10 6 10 9 7 8 1 7h-2l-2-3-4-1-9-10-14-10-13-6-14-4-6-1h-20l-14 3-15 6-25 14-24 14-26 15-16 12-1-2 1-2h2l2-4 4-4 4-2 1-2 5-2 8-6 12-6 4-3 22-12h2v-2l10-6 3-1 1-2 7-3 10-6 13-4 16-1z" fill="#EEF0F5"/>
<path transform="translate(679,1084)" d="m0 0h3l1 7-2 18-5 15-7 12h-2l-2 5-5 7h-2l-2 4-13 12-5 3h-2l-1 3-15 8-9 1-5 2-5-1-1-3h2v-2l14-5 12-6 14-10 11-11 7-10 8-15 5-16 5-17z" fill="#F3F3F8"/>
<path transform="translate(1157,998)" d="m0 0h15l14 4 12 5 16 8 10 6 14 7 7 4 13 8 7 4 17 11 9 8 3 7-1 2-7-7-7-4-8-4-13-8-28-16-26-15-16-8-16-5-11-2-13-1 2-2z" fill="#F2F2F8"/>
<path transform="translate(519,1246)" d="m0 0h5l1 5-2 16-3 11-7 14-11 13-2 3h-2v2h-2l-2 4h-2v2l-13 9-7 4-10 4h-2l-2-2-2-1 8-5 12-7 11-9 8-8 10-14 7-15 4-14z" fill="#F3F3F8"/>
<path transform="translate(404,817)" d="m0 0h30l16 4 8 3 18 7 12 8 5 4v2l4 2 7 8 10 20 1 5-3 1-4-4-8-14-11-13-12-10-13-8-15-6-12-3-9-1h-21l-18 3 2-5 10-2z" fill="#EBEEF5"/>
<path transform="translate(1902,1642)" d="m0 0h2l2 7 5 12 5 7-5 3-10 10-11 9-14 11-5 2-9-8-7-3-5-1h-15l1-2 5-2 1-2h7l1 3 12 1 4 2v2l9 1 5-3 18-14 4-8-2-17 1-7z" fill="#F6F5FA"/>
<path transform="translate(1252,668)" d="m0 0h1l1 66 3 8 4 6 5 5-1 3-7-2-5-5-5-16v-10l-2-13v-11l2-8 1-18z" fill="#E6E6F1"/>
<path transform="translate(1577,860)" d="m0 0 8 1 2 3-24 6-19 7-19 9-21 13-14 11-10 9-3 1 2-5 11-11h4l2-4 4-2v-2l5-3 6-3 4-3 5-3 5-2 5-3h2v-2l4-2h4l1-2 9-1v-3l24-8z" fill="#E8E8F0"/>
<path transform="translate(957,693)" d="m0 0 7 1 12 3 10 7 11 10 9 6 7 3 2 4-11-2-12-6-9-7-7-7-10-6-6-2-10-1 1-2z" fill="#F0F0F7"/>
<path transform="translate(520,1180)" d="m0 0 52 1-2 4-26 2-13 3-6 7h-3l-1-8z" fill="#FCFCFE"/>
<path transform="translate(596,977)" d="m0 0h8l17 6 16 8 12 8v2l4 2 6 8 1 5-4-1-7-8-7-7-7-2-11-7-13-6-16-5z" fill="#F1F2F8"/>
<path transform="translate(1137 1e3)" d="m0 0h7l3 1v3l-15 3-13 5-12 7-10 8-6 7h-2l-2 5-6 10h-1l1-7 7-9 3-5h2l2-5 3-3h4l2-4 5-4 18-9z" fill="#E7E7F1"/>
<path transform="translate(1070,700)" d="m0 0h6l-2 4-8 7-7 6-11 6-12 4-6-1v-2l6-3 10-4 8-4 3-2h3v-2h2v-2h2l1-3 4-1z" fill="#EFEEF3"/>
<path transform="translate(1588,1297)" d="m0 0h13l7 1 1 1 22 2 2 1v2l-2 2v1h-14l-10-2-3-1-15-1z" fill="#FCFCFE"/>
<path transform="translate(1070,1082)" d="m0 0h1v95l-2-1-1-7v-40l1-46z" fill="#A1A4D7"/>
<path transform="translate(751,647)" d="m0 0 7 1v2l-9 4-7 6-5 11-2 17h-1l-2-21 6-11 6-5z" fill="#ECEBF2"/>
<path transform="translate(1577,860)" d="m0 0 8 1 2 3-24 6-17 6h-2l1-3 5-1v-3l24-8z" fill="#E2E8F0"/>
<path transform="translate(202,1682)" d="m0 0 4 2 7 3v2l4 1 11 7 15 7 10 5 1 2-7-1-19-9-22-13-4-3z" fill="#D5D6EE"/>
<path transform="translate(355,1734)" d="m0 0h55v2l-12 1h-43z" fill="#CDD0ED"/>
<path transform="translate(121,760)" d="m0 0 4 1 1 3-4 4-4 8-2 5-5 10-7 9-1-2 12-25z" fill="#EBEBFE"/>
<path transform="translate(796,731)" d="m0 0 3 2 1 4-4 8-8 10-9 1v-2l5-4h2v-2h2l2-5 3-6 2-5z" fill="#EDEDF4"/>
<path transform="translate(337,1297)" d="m0 0 4 2 7 8 6 6-1 3-6-2-9-8-2-8z" fill="#DBDEF4"/>
<path transform="translate(1785,924)" d="m0 0 5 2 10 11v2l3 1 8 11 2 5 4 4 1 3-2 2-9-14-11-14-11-12z" fill="#C4CEE9"/>
<path transform="translate(179,1139)" d="m0 0 4 2 9 10 5 5-1 2-5-1-8-7-3-3z" fill="#D8DDF4"/>
<path transform="translate(526,1696)" d="m0 0h3l-1 3-17 9-12 5h-2v-3h3v-2h6v-2h4v-2h4v-2h4v-2h4v-2z" fill="#CDD4EE"/>
<path transform="translate(689,492)" d="m0 0h12l27 3-1 2-19-1-1-1-20-1z" fill="#B4B7DA"/>
<path transform="translate(1597,1296)" d="m0 0 18 1 21 1v1l-8 1v1h-11l-8-1-2-1-6-1z" fill="#ADB3D6"/>
<path transform="translate(1286,645)" d="m0 0 6 1 8 3 1 4-6-1-9-3-10-1 1-2z" fill="#EEF1F5"/>
<path transform="translate(564,1673)" d="m0 0 2 2-19 13-5 2 2-4h2v-2h4v-2h2v-2l6-2v-2h3v-2z" fill="#CCD2ED"/>
<path transform="translate(623,1619)" d="m0 0h2l-1 4-16 16-2-2 4-5h2v-2h2l2-4z" fill="#C8CCE5"/>
<path transform="translate(1729,956)" d="m0 0 4 1 19 19-1 3-6-5-1-4-4-1v-3l-4-2v-2l-4-2v-2l-3-1z" fill="#EB909F"/>
<path transform="translate(734,1118)" d="m0 0 2 1v20l-2 1-1-2-1-15z" fill="#FAFAFE"/>
<path transform="translate(1326,716)" d="m0 0h7l1 2 11-2 1 2-11 3h-8l-1 2-4-2v-2l3-1z" fill="#FCFCFE"/>
<path transform="translate(942,696)" d="m0 0h4v3l-8 4-7 6v-4l5-5z" fill="#E6E3EC"/>
<path transform="translate(472,1720)" d="m0 0h3v2l-20 6h-9l3-2 13-3z" fill="#C2CAE4"/>
<path transform="translate(745,1087)" d="m0 0 1 4-5 13-2 9h-1l-1-11 3-3 4-10z" fill="#D9D3E6"/>
<path transform="translate(1848,1111)" d="m0 0h2l1 7-1 6-1 2h-2l-1-4-1-2z" fill="#FAFAFE"/>
<path transform="translate(1346,492)" d="m0 0h16v1l-21 2-1 1-14-1v-1z" fill="#98A4CC"/>
<path transform="translate(520,967)" d="m0 0 5 1 1 7-2 2h-4z" fill="#FAFAFE"/>
<path transform="translate(1700,937)" d="m0 0 5 1 15 9 4 3v2l-4-2-15-9z" fill="#D98FA4"/>
<path transform="translate(1314,718)" d="m0 0 3 4 2 5 1 2h-5l-2 4v-13z" fill="#FBFBFE"/>
<path transform="translate(1785,924)" d="m0 0 5 2 10 11 1 5-5-5-11-12z" fill="#BBC6E3"/>
<path transform="translate(770,645)" d="m0 0 7 2 1 3-19-1v-1h7v-2z" fill="#D3D7E5"/>
<path transform="translate(1682,1291)" d="m0 0h6l2 1-2 4h-7l-2-3z" fill="#F1F2FA"/>
<path transform="translate(1577,1293)" d="m0 0h2l1 4-5 2-5-1 1-4z" fill="#FCFCFE"/>
<path transform="translate(101,803)" d="m0 0 2 1-1 2h2l1 6-7 1-2-2 3-3z" fill="#E0E3F8"/>
<path transform="translate(261,1713)" d="m0 0 8 2 5 3v2l-10-3-5-2z" fill="#C9D1E9"/>
<path transform="translate(587,1654)" d="m0 0 3 1-10 9-5 3v-3h2v-2h2v-2l5-3z" fill="#CBCCE3"/>
<path transform="translate(711,494)" d="m0 0h10l7 1-1 2-17-1z" fill="#CDD0EB"/>
<path transform="translate(506,1706)" d="m0 0 4 1-8 5-5 1v-3h3v-2h6z" fill="#DBDAF0"/>
<path transform="translate(1313,672)" d="m0 0 1 4h2l2 6-1 4v-2l-3 1-1-4z" fill="#FCFCFE"/>
<path transform="translate(564,1673)" d="m0 0 2 2-11 8-2-1 3-4h2v-2h3v-2z" fill="#C2CFE8"/>
<path transform="translate(1468,926)" d="m0 0h2l-2 4-7 8h-2l3-6h2v-2h2z" fill="#FBF0F3"/>
<path transform="translate(733,717)" d="m0 0h1l1 16-1-3-2-1v-10z" fill="#FBFBFE"/>
<path transform="translate(302,1726)" d="m0 0 9 2 3 3-12-2-4-2z" fill="#B5C3E0"/>
<path transform="translate(243,1705)" d="m0 0 6 2 5 3v1l-7-1-4-2z" fill="#DBD9F2"/>
<path transform="translate(1088,694)" d="m0 0h12v2l2 1-14-1z" fill="#FAFAFE"/>
<path transform="translate(1259,657)" d="m0 0 1 2-5 9-1 5h-1l-1-6 6-9z" fill="#D6D3E7"/>
<path transform="translate(1268,648)" d="m0 0m-1 1m-3 1 6 1-5 4-4 2-1-3z" fill="#E2DEEA"/>
<path transform="translate(1634,1301)" d="m0 0h8l-5 5h-5l3-1z" fill="#FDFDFE"/>
<path transform="translate(754,1074)" d="m0 0 1 2-7 11-1-4 6-8z" fill="#E1D6E6"/>
<path transform="translate(1762,993)" d="m0 0 3 1 5 9-1 4-6-11z" fill="#E68B9D"/>
<path transform="translate(973,702)" d="m0 0 5 1 6 5-2 3-9-8z" fill="#C9CCE4"/>
<path transform="translate(1167,1253)" d="m0 0h3l-1 3h-19v-1l15-1z" fill="#E5E5F8"/>
<path transform="translate(343,852)" d="m0 0h2l-2 4-6 8-1-4z" fill="#C3C7E2"/>
<path transform="translate(283,1721)" d="m0 0 8 2 3 1v2l-10-2-3-2z" fill="#BEC9E5"/>
<path transform="translate(539,1688)" d="m0 0m-2 1h2v4l-4 2-4-1 1-2z" fill="#DCE1F4"/>
<path transform="translate(623,1619)" d="m0 0h2l-1 4-5 4-2-2z" fill="#F1E0EA"/>
<path transform="translate(1312,1141)" d="m0 0 3 3v5h-2v2h-2z" fill="#FDFDFE"/>
<path transform="translate(384,824)" d="m0 0m-2 1 3 1-2 2-9 3v-3z" fill="#CCDBE9"/>
<path transform="translate(940,582)" d="m0 0 12 2-4 2-7-1z" fill="#C7CFE5"/>
</svg>
